<svg xmlns="http://www.w3.org/2000/svg" viewBox="0 0 150.18 150.18"><defs><style>.cls-1{fill:#fff;}.cls-2{fill:#412961;}</style></defs><title>favicon_1</title><g id="Laag_2" data-name="Laag 2"><g id="Laag_1-2" data-name="Laag 1"><circle class="cls-1" cx="75.09" cy="75.09" r="75.09"/><path class="cls-2" d="M39,90.83a17.12,17.12,0,0,0-.16,2.36,18.21,18.21,0,0,0,20.46,17.94,18.05,18.05,0,0,0,31.49,0,18.21,18.21,0,0,0,20.46-17.94,18.82,18.82,0,0,0-.15-2.36,18.06,18.06,0,0,0,0-31.49,18.7,18.7,0,0,0,.15-2.36A18.21,18.21,0,0,0,90.83,39a18.06,18.06,0,0,0-31.49,0A18.2,18.2,0,0,0,38.88,57,17,17,0,0,0,39,59.34a18.06,18.06,0,0,0,0,31.49Zm6.52-24.45,5-1.33-2-4.76A8.76,8.76,0,0,1,47.93,57a9.06,9.06,0,0,1,9-9,8.8,8.8,0,0,1,3.31.66l4.77,2,1.32-5a9,9,0,0,1,17.41,0l1.33,5,4.77-2a8.71,8.71,0,0,1,3.3-.66,9.06,9.06,0,0,1,9,9,8.75,8.75,0,0,1-.65,3.31l-2,4.76,5,1.33a9,9,0,0,1,0,17.42l-5,1.32,2,4.77a8.7,8.7,0,0,1,.65,3.3,9.06,9.06,0,0,1-9,9,8.7,8.7,0,0,1-3.3-.65l-4.77-2-1.33,5a9,9,0,0,1-17.41,0l-1.32-5-4.77,2a8.79,8.79,0,0,1-3.31.65,9.06,9.06,0,0,1-9-9,8.71,8.71,0,0,1,.66-3.3l2-4.77-5-1.32a9,9,0,0,1,0-17.42Z"/><path class="cls-2" d="M92,69.25l-6.37-6.43L70.58,77.75l-5.87-5.86-6.4,6.4L70.55,90.53Z"/></g></g></svg>